<?xml version="1.0" encoding="utf-8"?>
<!-- Generator: Adobe Illustrator 22.0.1, SVG Export Plug-In . SVG Version: 6.00 Build 0)  -->
<svg version="1.1" id="Layer_1" xmlns="http://www.w3.org/2000/svg" xmlns:xlink="http://www.w3.org/1999/xlink" x="0px" y="0px"
	 viewBox="0 0 512 512" style="enable-background:new 0 0 512 512;" xml:space="preserve">
<style type="text/css">
	.st0{fill:#FFFFFF;}
</style>
<g>
	<path class="st0" d="M420.5,511.7c13.1,0,12.1-19.5,12.1-19.5s0-123.3,0-168.9s-20.7-96.4-24.2-108.6c-3.4-12.2-11-36.9-11-37
		c-8-34.7-13.4-86.7-13.4-91.5c0-5.9,1.5-17.5,3.6-25.8c2.1-8.3-0.9-7.9-0.9-9.2c0-1.2,1.9-1.2,2.3-9.4c0.4-8.2-6.4-11.3-6.4-13.7
		c0-2.4,2.2-3.5,2.4-11.3c0-17.2-23.7-16.6-23.7-16.6s-23.7-0.7-23.7,16.6c0.2,7.7,2.4,8.8,2.4,11.3c0,2.4-6.9,5.5-6.4,13.7
		c0.4,8.2,2.3,8.2,2.3,9.4s-2.9,0.9-0.9,9.2c2.1,8.3,3.6,20,3.6,25.8c0,4.8-5.5,56.8-13.4,91.5l0,0c0,0-7.6,24.8-11,37
		c-3.4,12.2-24.2,63-24.2,108.6s0,168.9,0,168.9s-2.1,19.6,12.1,19.5"/>
	<g>
		<path class="st0" d="M248.8,305.3c0-58.7-14.8-81-14.8-81H94.3c0,0-14.8,22.8-14.8,81c0,29.1,37.1,73.5,73.5,73.5
			c0,8.6,0,102.1,0,110.6c-2.9,1.1-37.6,11.3-44.5,20.8c-1.1,1.5,0,1.4,0,1.4h110.6c0,0,0,1.4,0-0.4c0-7.9-44.5-21.8-44.5-21.8
			V378.9C212.9,378.9,248.8,335,248.8,305.3z"/>
	</g>
</g>
</svg>
