<?xml version="1.0" encoding="utf-8"?>
<!-- Generator: Adobe Illustrator 22.0.1, SVG Export Plug-In . SVG Version: 6.00 Build 0)  -->
<svg version="1.1"
	 id="Layer_1" xmlns:cc="http://creativecommons.org/ns#" xmlns:dc="http://purl.org/dc/elements/1.1/" xmlns:inkscape="http://www.inkscape.org/namespaces/inkscape" xmlns:rdf="http://www.w3.org/1999/02/22-rdf-syntax-ns#" xmlns:sodipodi="http://sodipodi.sourceforge.net/DTD/sodipodi-0.dtd" xmlns:svg="http://www.w3.org/2000/svg"
	 xmlns="http://www.w3.org/2000/svg" xmlns:xlink="http://www.w3.org/1999/xlink" x="0px" y="0px" viewBox="0 0 512 512"
	 style="enable-background:new 0 0 512 512;" xml:space="preserve">
<style type="text/css">
	.st0{fill:#FFFFFF;stroke:#000000;stroke-width:2.012;stroke-linejoin:round;stroke-miterlimit:14.4;}
</style>
<g transform="translate(0,-952.36216)">
	<path class="st0" d="M256.8,964.1c-4,0-7.7,2.2-9.5,5.8c-51,102-51.3,185.1-38.3,243.4c2.4,10.8,1.9,16.8,5,25.8
		c-2.3-4.1-1.3-4.2-4-8.4c-27.1-42.6-77.5-91.7-168.9-122.1c-0.8-0.3-1.7-0.4-2.6-0.5c-6.1-0.1-10.5,5.9-8.6,11.7
		c30.5,91.4,79.6,140.9,122.2,168c8.4,5.4,16.5,9.6,24.2,13.3c-2.8-0.8-5.5-1.5-8.5-2.2c-9.8-2.2-20.7-3.8-32.7-4.5
		c-35.7-2-79.6,5.5-131.1,31.3c-5.2,2.6-5.2,10,0,12.7c66.7,33.3,123.8,29.7,162.9,21.8c-22.9,11.7-50.1,36.6-72.7,71
		c-2.3,3.5,0.4,8.1,4.6,7.9c55.4-3.3,91-23.7,112.4-43.3c21.4-19.7,29.1-39,29.1-39c8.8-18.2,21.9-21.5,31.8,0c0,0,7.6,19.3,29.1,39
		c21.4,19.7,57,40,112.4,43.3c4.2,0.2,6.9-4.4,4.6-7.9c-22.7-34.3-48-54.5-70.8-66.2c39.1,7.9,94.3,6.8,161-26.5
		c5.2-2.6,5.2-10,0-12.7c-51.6-25.8-96.3-32.3-132.1-30.3c-11.9,0.7-22.8,2.3-32.6,4.5c-3,0.7-5.7,1.5-8.5,2.2
		c7.7-3.7,15.7-8,24.2-13.3c42.6-27.1,92.6-77.5,123.1-168.9c1.9-5.8-2.4-11.7-8.5-11.7c-0.9,0-1.8,0.2-2.7,0.5
		c-91.4,30.5-141.8,80.5-168.9,123.1c-1.4,2.3-2.8,4.5-4.1,6.7c2.4-7.5,4.6-15.5,6.5-24.2c13-58.3,12.7-142.4-38.3-244.4
		C264.3,966.3,260.7,964.1,256.8,964.1L256.8,964.1z"/>
	<circle class="st0" cx="256.2" cy="1366.3" r="9.1"/>
	<circle class="st0" cx="256.2" cy="1392.6" r="9.1"/>
	<circle class="st0" cx="256.2" cy="1418.1" r="9.1"/>
	<circle class="st0" cx="256.2" cy="1443.5" r="9.1"/>
</g>
</svg>
