<?xml version="1.0" encoding="utf-8"?>
<!-- Generator: Adobe Illustrator 22.0.1, SVG Export Plug-In . SVG Version: 6.00 Build 0)  -->
<svg version="1.1" id="Layer_1" xmlns="http://www.w3.org/2000/svg" xmlns:xlink="http://www.w3.org/1999/xlink" x="0px" y="0px"
	 viewBox="0 0 512 512" style="enable-background:new 0 0 512 512;" xml:space="preserve">
<style type="text/css">
	.st0{fill:#FFFFFF;}
	.st1{fill:none;stroke:#FFFFFF;stroke-width:16;stroke-linecap:round;stroke-miterlimit:10;}
	.st2{fill:none;stroke:#FFFFFF;stroke-width:16;stroke-miterlimit:10;}
</style>
<g id="Layer_1_1_">
	<path class="st0" d="M439.3,401.8L368,384c-74.9,53.9-165.7,41.9-223.9,0l-71.3,17.8C30,412.5,0,450.9,0,495v17h512v-17
		C512,450.9,482,412.5,439.3,401.8L439.3,401.8z"/>
	<path class="st0" d="M256,46.3c-96.7,0-175,78.3-175,175s78.3,175,175,175s175-78.3,175-175S352.7,46.3,256,46.3z M312.5,164.9
		c12.5,0,22.6,10.1,22.6,22.6S324.9,210,312.5,210s-22.6-10.1-22.6-22.6S300,164.9,312.5,164.9z M189.5,184.9
		c12.5,0,22.6,10.1,22.6,22.6S202,230,189.5,230S167,219.9,167,207.4S177.1,184.9,189.5,184.9z M337,285c-2.9,3.5-9.2,9.7-9.2,9.7
		s5.7,19.7-17.4,32c-17.4,9.3-33.8-6.5-33.8-6.5s-5.9,2.7-20.7,2.7c-31.4,0-60.9-13.8-81-38c-4-4.8-3.3-11.9,1.4-15.9
		c4.8-4,11.9-3.3,15.9,1.4c15.8,19,39,29.8,63.6,29.8s47.8-10.9,63.6-29.8c4-4.8,11.1-5.4,15.9-1.4C340.3,273.1,341,280.2,337,285z"
		/>
</g>
<g id="Layer_3">
</g>
<g id="Layer_2_1_">
	<line class="st1" x1="434.3" y1="44.5" x2="453.1" y2="40.6"/>
	<line class="st1" x1="420.3" y1="29.2" x2="426.4" y2="10.8"/>
	<line class="st1" x1="440.6" y1="78.6" x2="427.8" y2="64.3"/>
	<circle class="st2" cx="442.4" cy="195.4" r="16.4"/>
	<circle class="st2" cx="463.3" cy="130.7" r="29.2"/>
</g>
<line class="st1" x1="374.8" y1="56.9" x2="393.4" y2="53"/>
<line class="st1" x1="401.4" y1="86.8" x2="407.5" y2="68.3"/>
<line class="st1" x1="400.1" y1="33.3" x2="387.2" y2="18.9"/>
</svg>
