<?xml version="1.0" encoding="utf-8"?>
<!-- Generator: Adobe Illustrator 22.0.1, SVG Export Plug-In . SVG Version: 6.00 Build 0)  -->
<svg version="1.1" xmlns="http://www.w3.org/2000/svg" xmlns:xlink="http://www.w3.org/1999/xlink" x="0px" y="0px"
	 viewBox="0 0 512 512" style="enable-background:new 0 0 512 512;" xml:space="preserve">
<style type="text/css">
	.st0{fill:#FFFFFF;}
</style>
<g id="Layer_2">
</g>
<g id="Layer_1">
	<title>64 -Knife- (gastronomy, food, cooking)</title>
	<desc>Created with Sketch.</desc>
	<g>
		<g transform="translate(-471.000000, -1121.000000)">
			<g transform="translate(471.000000, 1121.000000)">
				<path class="st0" d="M274.1,245.7L219.8,300c-3.3,3.3-3.3,8.7,0,12.1c1.7,1.7,3.8,2.5,6,2.5s4.4-0.8,6-2.5l54.3-54.3
					c3.3-3.3,3.3-8.7,0-12.1C282.9,242.4,277.5,242.4,274.1,245.7"/>
				<path class="st0" d="M396,149.4 M347.8,197.7c-3.3,3.3-8.7,3.3-12.1,0c-3.3-3.3-3.3-8.7,0-12.1c3.3-3.3,8.7-3.3,12.1,0
					C351.1,188.9,351.1,194.3,347.8,197.7 M38,464.3l243.4-248.4l60.3,60.2C256.8,358.9,143.7,428.8,38,464.3 M460.4,31.9
					c-10-10.1-18.9-0.3-18.9-0.3L275.3,197.7l0,0c0,0,0,0-0.1,0.1L2.4,476.2c-2.7,2.8-3.2,7-1.3,10.3c1.6,2.7,4.4,4.2,7.4,4.2
					c0.7,0,1.5-0.1,2.2-0.3C130.2,457.8,264,378,359.8,282.2c1.6-1.6,2.5-3.8,2.5-6c0-2.3-0.9-4.4-2.5-6L341.7,252L502.4,91.3
					c0,0,9.6-8.2,0.2-17.3"/>
			</g>
		</g>
	</g>
</g>
</svg>
