<?xml version="1.0" encoding="utf-8"?>
<!-- Generator: Adobe Illustrator 22.0.1, SVG Export Plug-In . SVG Version: 6.00 Build 0)  -->
<svg version="1.1" id="Layer_2" xmlns="http://www.w3.org/2000/svg" xmlns:xlink="http://www.w3.org/1999/xlink" x="0px" y="0px"
	 viewBox="0 0 512 512" style="enable-background:new 0 0 512 512;" xml:space="preserve">
<style type="text/css">
	.st0{fill:#FFFFFF;}
</style>
<g>
	<path class="st0" d="M218.7,200.9l-43.2,43.2c-2.9,2.9-7.7,2.9-10.6,0l-2.5-2.5c-2.9-2.9-2.9-7.7,0-10.6l43.2-43.2
		c2.9-2.9,7.7-2.9,10.6,0l2.5,2.5C221.6,193.2,221.6,198,218.7,200.9z"/>
	<path class="st0" d="M175.5,187.9l43.2,43.2c2.9,2.9,2.9,7.7,0,10.6l-2.5,2.5c-2.9,2.9-7.7,2.9-10.6,0l-43.2-43.2
		c-2.9-2.9-2.9-7.7,0-10.6l2.5-2.5C167.8,184.9,172.5,184.9,175.5,187.9z"/>
	<path class="st0" d="M286.1,200.9l-43.2,43.2c-2.9,2.9-7.7,2.9-10.6,0l-2.5-2.5c-2.9-2.9-2.9-7.7,0-10.6l43.2-43.2
		c2.9-2.9,7.7-2.9,10.6,0l2.5,2.5C289.1,193.2,289.1,198,286.1,200.9z"/>
	<path class="st0" d="M242.9,187.9l43.2,43.2c2.9,2.9,2.9,7.7,0,10.6l-2.5,2.5c-2.9,2.9-7.7,2.9-10.6,0l-43.2-43.2
		c-2.9-2.9-2.9-7.7,0-10.6l2.5-2.5C235.2,184.9,240,184.9,242.9,187.9z"/>
	<path class="st0" d="M353.6,200.9l-43.2,43.2c-2.9,2.9-7.7,2.9-10.6,0l-2.5-2.5c-2.9-2.9-2.9-7.7,0-10.6l43.2-43.2
		c2.9-2.9,7.7-2.9,10.6,0l2.5,2.5C356.5,193.2,356.5,198,353.6,200.9z"/>
	<path class="st0" d="M310.4,187.9l43.2,43.2c2.9,2.9,2.9,7.7,0,10.6l-2.5,2.5c-2.9,2.9-7.7,2.9-10.6,0l-43.2-43.2
		c-2.9-2.9-2.9-7.7,0-10.6l2.5-2.5C302.7,184.9,307.5,184.9,310.4,187.9z"/>
</g>
</svg>
