<?xml version="1.0" encoding="utf-8"?>
<!-- Generator: Adobe Illustrator 22.0.1, SVG Export Plug-In . SVG Version: 6.00 Build 0)  -->
<svg version="1.1" id="Layer_1" xmlns="http://www.w3.org/2000/svg" xmlns:xlink="http://www.w3.org/1999/xlink" x="0px" y="0px"
	 viewBox="0 0 640 512" style="enable-background:new 0 0 640 512;" xml:space="preserve">
<style type="text/css">
	.st0{fill:#FFFFFF;}
</style>
<path class="st0" d="M632,352h-48c-4.4,0-8,3.6-8,8v144c0,4.4,3.6,8,8,8h48c4.4,0,8-3.6,8-8V360C640,355.6,636.4,352,632,352z
	 M553.3,87.1c-5.7-3.8-9.3-10-9.3-16.8V8c0-4.4-3.6-8-8-8h-48c-4.4,0-8,3.6-8,8v62.3c0,22,10.2,43.4,28.6,55.4
	c42.2,27.3,67.4,73.8,67.4,124V280c0,4.4,3.6,8,8,8h48c4.4,0,8-3.6,8-8v-30.3C640,184.2,607.6,123.5,553.3,87.1z M432,352H48
	c-26.5,0-48,21.5-48,48v64c0,26.5,21.5,48,48,48h384c8.8,0,16-7.2,16-16V368C448,359.2,440.8,352,432,352z M400,464H224v-64h176V464
	z M487.7,141.6C463.8,125,448,99.3,448,70.3V8c0-4.4-3.6-8-8-8h-48c-4.4,0-8,3.6-8,8v66.4c0,43.7,24.6,81.6,60.3,106.7
	c22.4,15.7,35.7,41.2,35.7,68.6V280c0,4.4,3.6,8,8,8h48c4.4,0,8-3.6,8-8v-30.3C544,206.4,523,166.3,487.7,141.6z M536,352h-48
	c-4.4,0-8,3.6-8,8v144c0,4.4,3.6,8,8,8h48c4.4,0,8-3.6,8-8V360C544,355.6,540.4,352,536,352z"/>
</svg>
