<?xml version="1.0" encoding="utf-8"?>
<!-- Generator: Adobe Illustrator 22.0.1, SVG Export Plug-In . SVG Version: 6.00 Build 0)  -->
<svg version="1.1" xmlns="http://www.w3.org/2000/svg" xmlns:xlink="http://www.w3.org/1999/xlink" x="0px" y="0px"
	 viewBox="0 0 512 512" style="enable-background:new 0 0 512 512;" xml:space="preserve">
<style type="text/css">
	.st0{fill:#FFFFFF;}
</style>
<g id="Layer_2">
</g>
<g id="Layer_1">
	<g>
		<path class="st0" d="M401.1,262.7c-17.3-2.2-32.9,11.3-32.9,28.6v-14.6c0-14.6-10.3-27.5-24.8-29.7c-17.3-2.2-32.9,11.3-32.9,28.6
			v-14.6c0-14.6-10.3-27.5-24.8-29.7c-17.3-2.2-32.9,11.3-32.9,28.6V137c0-15.6-12.9-28.6-28.6-28.6s-28.6,12.9-28.6,28.6v221.7
			c0,3.2-4.3,4.3-5.9,1.6c-10.8-18.3-23.2-43.7-23.7-43.7c-7-14-23.7-20-37.8-12.9c-14,7-20,23.7-12.9,37.8
			c1.1,1.6,25.9,51.8,49.1,85.2c29.7,42.1,55.6,62.6,68.5,71.2c12.9,9.2,25.9,14,34.5,14c8.6,0,72.8,0,72.8,0
			c12.9,0,24.8-6.5,31.8-16.7l13.5-19.4c25.9-37.2,39.4-83.1,39.4-130v-53.4C425.9,277.3,415.1,264.4,401.1,262.7z"/>
		<path class="st0" d="M224.1,70.1c6.5,0,11.3-4.9,11.3-11.3V11.3c0-6.5-4.9-11.3-11.3-11.3s-11.3,4.9-11.3,11.3v47.5
			C212.8,64.7,218.2,70.1,224.1,70.1z"/>
		<path class="st0" d="M161,89.6c2.2,2.2,5.4,3.2,8.1,3.2c2.7,0,5.9-1.1,8.1-3.2c4.3-4.3,4.3-11.9,0-16.2l-34-33.4
			c-4.3-4.3-11.9-4.3-16.2,0s-4.3,11.9,0,16.2L161,89.6z"/>
		<path class="st0" d="M157.2,137c0-6.5-4.9-11.3-11.3-11.3H98.4c-6.5,0-11.3,4.9-11.3,11.3c0,6.5,4.9,11.3,11.3,11.3h47.5
			C152.4,148.4,157.2,143.5,157.2,137z"/>
		<path class="st0" d="M291.6,137c0,6.5,4.9,11.3,11.3,11.3h47.5c6.5,0,11.3-4.9,11.3-11.3c0-6.5-4.9-11.3-11.3-11.3h-47.5
			C296.4,125.7,291.6,131.1,291.6,137z"/>
		<path class="st0" d="M279.7,92.8c2.7,0,5.9-1.1,8.1-3.2l33.4-33.4c4.3-4.3,4.3-11.9,0-16.2c-4.3-4.3-11.9-4.3-16.2,0l-33.4,33.4
			c-4.3,4.3-4.3,11.9,0,16.2C274.3,91.7,277,92.8,279.7,92.8z"/>
	</g>
</g>
</svg>
