<?xml version="1.0" encoding="utf-8"?>
<!-- Generator: Adobe Illustrator 22.0.1, SVG Export Plug-In . SVG Version: 6.00 Build 0)  -->
<svg version="1.1" xmlns="http://www.w3.org/2000/svg" xmlns:xlink="http://www.w3.org/1999/xlink" x="0px" y="0px"
	 viewBox="0 0 512 512" style="enable-background:new 0 0 512 512;" xml:space="preserve">
<style type="text/css">
	.st0{fill:#FFFFFF;}
</style>
<g id="Layer_2">
</g>
<g id="Layer_1">
	<path class="st0" d="M437,488.6v-8.5v-11.8V239v-11.8v-8.5c-0.1-9-5.1-16.6-12.4-20.6v-29.8v-11.8v-38.4v-11.8v-23
		c0-7.9-6.4-14.2-14.2-14.2h-2.8V14.4c0-7.9-6.5-14.4-14.4-14.4l-31.8,0c-7.9,0-14.4,6.5-14.4,14.4v54.7h-2.8
		c-7.9,0-14.2,6.4-14.2,14.2v16.4h24.4c1.4,0,2.4,1.1,2.4,2.4v63.6c0,1.3-1,2.4-2.4,2.4h-24.4v0.1v27h-42.6
		c-12.9,0-23.4,10.5-23.4,23.4v8.6V239v229.4v11.8v8.5c0,12.9,10.5,23.4,23.4,23.4h126.4C426.5,512,437,501.5,437,488.6z"/>
	<path class="st0" d="M181.7,509.3c1.6-1.6,2.6-4.2,2.6-6.8V155.2l0,0v-40.6c0-1.6-0.5-3.1-1-4.2c-13-27.1-20.3-62.5-21.3-93.7
		c1.6-1.6,2.6-4.2,2.6-6.8c0-5.2-4.2-9.9-9.9-9.9l-2.6,0l0,0l-44.8,0l0,0l-2.6,0c-5.2,0-9.9,4.2-9.9,9.9c0,2.6,1,4.7,2.6,6.8
		c-1,31.2-8.3,66.7-21.3,93.7c-0.5,1.6-1,2.6-1,4.2v40.6l0,0v347.3c0,2.6,1,5.2,2.6,6.8c1.6,1.6,4.2,2.6,6.8,2.6H175
		C177.6,512.4,180.2,511.3,181.7,509.3z M94.8,145.3v-28.6c13.5-29.2,20.8-64.6,22.4-96.9h26c1,32.3,8.9,67.7,22.4,96.9v28.6H94.8z"
		/>
</g>
</svg>
